<?xml version="1.0"?>
<svg xmlns="http://www.w3.org/2000/svg" xmlns:xlink="http://www.w3.org/1999/xlink" version="1.1" id="Capa_1" x="0px" y="0px" viewBox="0 0 512 512" style="enable-background:new 0 0 512 512;" xml:space="preserve" width="512px" height="512px"><g><g>
	<g>
		<path d="M426.667,192c-7.875,0-15.26,2.146-21.604,5.885C402.677,176.594,384.573,160,362.667,160    c-10.417,0-19.99,3.771-27.427,10.052c-7.469-12.406-21.063-20.719-36.573-20.719c-7.76,0-15.052,2.083-21.333,5.729V42.667    C277.333,19.135,258.198,0,234.667,0S192,19.135,192,42.667v285.479c0,5.375-3.542,8.135-5.063,9.073s-5.615,2.865-10.375,0.469    l-68.5-34.25c-6.24-3.125-13.229-4.771-20.208-4.771c-24.917,0-45.188,20.271-45.188,45.188V352c0,2.958,1.229,5.781,3.385,7.802    l123.115,114.906C194.937,498.75,228.542,512,263.781,512h66.885c76.458,0,138.667-62.208,138.667-138.667V234.667    C469.333,211.135,450.198,192,426.667,192z" data-original="#000000" class="active-path" data-old_color="#000000" fill="#FFFFFF"/>
	</g>
</g></g> </svg>
