<?xml version="1.0"?>
<svg xmlns="http://www.w3.org/2000/svg" id="Layer_1" height="512px" viewBox="0 0 64 64" width="512px" data-name="Layer 1"><g><path d="m47.74 1.41-23.74 23.77a22.48 22.48 0 0 0 -22.58 5.58l31.82 31.82a22.48 22.48 0 0 0 5.58-22.58l23.77-23.74z" fill="#4674fa" data-original="#4674FA" class="active-path" style="fill:#FFFFFF" data-old_color="#4674fa"/><path d="m55.16 11.67 4.6 4.59-22.35 22.35-.5 2a20.49 20.49 0 0 1 -3.74 19.08l-28.85-28.86a20.47 20.47 0 0 1 19.07-3.74l2-.5 22.35-22.35 4.59 4.6 2.83-2.84-6-6h-2.84l-22.93 22.93a24.48 24.48 0 0 0 -23.39 6.42v2.83l14.5 14.49-14.5 14.5 2.83 2.83 14.5-14.5 14.49 14.5h2.83a24.48 24.48 0 0 0 6.42-23.39l22.93-22.93v-2.83l-6-6z" data-original="#000000" class="" style="fill:#FFFFFF" data-old_color="#000000"/></g> </svg>
