<?xml version="1.0"?>
<svg xmlns="http://www.w3.org/2000/svg" viewBox="0 0 64 64" width="512px" height="512px" class=""><g><path d="m3 3v28h32v30h26v-58z" fill="#60a867" data-original="#60A867" class="" style="fill:#FFFFFF" data-old_color="#60a867"/><path d="m3 35h28v26h-28z" fill="#db735c" data-original="#DB735C" class="" style="fill:#FFFFFF" data-old_color="#db735c"/><path d="m61.707 2.29248a.99927.99927 0 0 0 -.707-.293l-58 .00052a.99974.99974 0 0 0 -1 1v28a.99974.99974 0 0 0 1 1h31v28.99951a.99974.99974 0 0 0 1 1h26a.99974.99974 0 0 0 1-1v-58a1.00014 1.00014 0 0 0 -.293-.70703zm-1.707 57.70703h-24v-28.99951a.99974.99974 0 0 0 -1-1h-31v-26h56z" data-original="#000000" class="active-path" style="fill:#000000" data-old_color="#000000"/><path d="m3 62h28a.99974.99974 0 0 0 1-1v-26a.99974.99974 0 0 0 -1-1h-28a.99974.99974 0 0 0 -1 1v26a.99974.99974 0 0 0 1 1zm1-2v-3h26v3zm26-14v4h-26v-4zm-26-2v-3h26v3zm26 8v3h-26v-3zm0-16v3h-26v-3z" data-original="#000000" class="active-path" style="fill:#000000" data-old_color="#000000"/></g> </svg>
