<svg id="Capa_1" enable-background="new 0 0 512 512" height="512" viewBox="0 0 512 512" width="512" xmlns="http://www.w3.org/2000/svg" xmlns:xlink="http://www.w3.org/1999/xlink"><linearGradient id="lg1"><stop offset="0" stop-color="#addcff"/><stop offset=".5028" stop-color="#eaf6ff"/><stop offset="1" stop-color="#eaf6ff"/></linearGradient><linearGradient id="SVGID_1_" gradientUnits="userSpaceOnUse" x1="256" x2="256" xlink:href="#lg1" y1="512" y2="0"/><linearGradient id="SVGID_2_" gradientUnits="userSpaceOnUse" x1="285" x2="285" y1="380" y2="0"><stop offset="0" stop-color="#5558ff"/><stop offset="1" stop-color="#00c0ff"/></linearGradient><linearGradient id="SVGID_3_" gradientUnits="userSpaceOnUse" x1="226" x2="226" xlink:href="#lg1" y1="301" y2="211"/><g><path d="m481 105v392c0 8.399-6.599 15-15 15h-420c-8.401 0-15-6.601-15-15v-482c0-8.401 6.599-15 15-15h330l30 75z" fill="url(#SVGID_1_)"/><g><g><path d="m406 151h-302c-8.284 0-15 6.716-15 15v214c0-3.978 1.58-7.793 4.394-10.607l62-62c5.857-5.858 15.355-5.858 21.213 0l49.393 49.394 79.394-79.394c5.857-5.858 15.355-5.858 21.213 0l90 90c2.813 2.814 4.393 6.629 4.393 10.607v-212c0-8.284-6.716-15-15-15zm70.499-56.501-90-90c-2.699-2.999-6.599-4.499-10.499-4.499v105h105c0-3.9-1.5-7.8-4.501-10.501z" fill="url(#SVGID_2_)"/></g></g><g><g><circle cx="226" cy="256" fill="url(#SVGID_3_)" r="45"/></g></g></g></svg>