<?xml version="1.0"?>
<svg xmlns="http://www.w3.org/2000/svg" id="_x31__x2C_5" enable-background="new 0 0 24 24" height="512px" viewBox="0 0 24 24" width="512px" class=""><g><path d="m12 18.5c-.174 0-.347-.06-.488-.18-.184-.158-4.512-3.905-4.512-7.757 0-2.792 2.243-5.063 5-5.063s5 2.271 5 5.063c0 3.853-4.328 7.6-4.512 7.757-.141.12-.314.18-.488.18zm0-11.5c-1.93 0-3.5 1.598-3.5 3.563 0 2.482 2.436 5.126 3.5 6.164 1.064-1.037 3.5-3.682 3.5-6.164 0-1.965-1.57-3.563-3.5-3.563z" data-original="#000000" class="active-path" data-old_color="#000000" fill="#FFFFFF"/><path d="m12 12.5c-1.103 0-2-.897-2-2s.897-2 2-2 2 .897 2 2-.897 2-2 2zm0-2.5c-.276 0-.5.224-.5.5s.224.5.5.5.5-.224.5-.5-.224-.5-.5-.5z" data-original="#000000" class="active-path" data-old_color="#000000" fill="#FFFFFF"/><path d="m12 22c-5.514 0-10-4.486-10-10s4.486-10 10-10 10 4.486 10 10-4.486 10-10 10zm0-18.5c-4.687 0-8.5 3.813-8.5 8.5s3.813 8.5 8.5 8.5 8.5-3.813 8.5-8.5-3.813-8.5-8.5-8.5z" data-original="#000000" class="active-path" data-old_color="#000000" fill="#FFFFFF"/><path d="m12 4.435c-.414 0-.75-.336-.75-.75v-2.935c0-.414.336-.75.75-.75s.75.336.75.75v2.935c0 .414-.336.75-.75.75z" data-original="#000000" class="active-path" data-old_color="#000000" fill="#FFFFFF"/><path d="m12 24c-.414 0-.75-.336-.75-.75v-2.935c0-.414.336-.75.75-.75s.75.336.75.75v2.935c0 .414-.336.75-.75.75z" data-original="#000000" class="active-path" data-old_color="#000000" fill="#FFFFFF"/><path d="m23.25 12.75h-2.935c-.414 0-.75-.336-.75-.75s.336-.75.75-.75h2.935c.414 0 .75.336.75.75s-.336.75-.75.75z" data-original="#000000" class="active-path" data-old_color="#000000" fill="#FFFFFF"/><path d="m3.685 12.75h-2.935c-.414 0-.75-.336-.75-.75s.336-.75.75-.75h2.935c.414 0 .75.336.75.75s-.336.75-.75.75z" data-original="#000000" class="active-path" data-old_color="#000000" fill="#FFFFFF"/></g> </svg>
