<?xml version="1.0" encoding="iso-8859-1"?>
<!-- Generator: Adobe Illustrator 19.0.0, SVG Export Plug-In . SVG Version: 6.00 Build 0)  -->
<svg version="1.1" id="Capa_1" xmlns="http://www.w3.org/2000/svg" xmlns:xlink="http://www.w3.org/1999/xlink" x="0px" y="0px"
	 viewBox="0 0 400 400" style="enable-background:new 0 0 400 400;" xml:space="preserve">
<path style="fill:#FFDC69;" d="M312,0H112C94.328,0,80,14.328,80,32v8H32C14.328,40,0,54.328,0,72v40c0,17.672,14.328,32,32,32h48
	v56v104v32c0,17.68,14.32,32,32,32h24h24c0,17.672,14.328,32,32,32h96c17.672,0,32-14.328,32-32h24h24c17.672,0,32-14.328,32-32V88
	v-8L320,0H312z M272,72c0-17.672-14.328-32-32-32C257.68,40,272,54.32,272,72z M272,112c0,17.68-14.32,32-32,32
	C257.672,144,272,129.672,272,112z"/>
<path style="fill:#FF8C5A;" d="M272,72v40c0,17.672-14.328,32-32,32H32c-17.672,0-32-14.328-32-32V72c0-17.672,14.328-32,32-32h208
	C257.672,40,272,54.328,272,72z"/>
<path style="fill:#FEEC9F;" d="M288,400h-96c-17.672,0-32-14.328-32-32v-80c0-17.672,14.328-32,32-32h96c17.672,0,32,14.328,32,32
	v80C320,385.672,305.672,400,288,400z"/>
<polygon style="fill:#FFFFFF;" points="240,360 216,360 216,336 256,296 280,320 "/>
<path style="fill:#FFB855;" d="M320,0h-8v56c0,17.672,14.328,32,32,32h56v-8L320,0z"/>
<g>
	<rect x="24" y="104" style="fill:#FFFFFF;" width="16" height="16"/>
	<path style="fill:#FFFFFF;" d="M53.376,64.168v55.808h16v-17.16H75.2c10.368,0,22.488-5.192,22.488-19.832
		c0-12.312-7.776-18.824-22.488-18.824H53.376V64.168z M69.376,77.168h5.16c5.248,0,7.488,1.736,7.488,5.816
		c0,4.528-2.52,6.824-7.488,6.824h-5.16C69.376,89.808,69.376,77.168,69.376,77.168z"/>
	<path style="fill:#FFFFFF;" d="M104.8,64.168v55.808h16v-17.16h5.824c10.376,0,22.488-5.192,22.488-19.832
		c0-12.312-7.776-18.824-22.488-18.824H104.8V64.168z M120.792,77.168h5.16c5.248,0,7.488,1.736,7.488,5.816
		c0,4.528-2.52,6.824-7.488,6.824h-5.16V77.168z"/>
	<path style="fill:#FFFFFF;" d="M244.152,64.168h-17.288l-3.352,9.352c-0.832,2.08-1.792,4.536-2.784,7.392
		c-0.304-0.72-0.6-1.424-0.88-2.104c-0.816-1.976-1.552-3.752-2.272-5.296l-3.88-9.344h-17.672h-0.264h-44.376v13.68h14.32v42.128
		h16V77.84h14.32V64.656l14,26.648l-15.096,28.656H212.2l4.208-10.176c0.96-2.328,1.936-4.728,2.92-7.4
		c1.136,2.816,2.12,5.136,3.192,7.424l4.552,10.16h17.936l-15.112-27.992L244.152,64.168z"/>
</g>
<g>
</g>
<g>
</g>
<g>
</g>
<g>
</g>
<g>
</g>
<g>
</g>
<g>
</g>
<g>
</g>
<g>
</g>
<g>
</g>
<g>
</g>
<g>
</g>
<g>
</g>
<g>
</g>
<g>
</g>
</svg>
