<?xml version="1.0"?>
<svg xmlns="http://www.w3.org/2000/svg" xmlns:xlink="http://www.w3.org/1999/xlink" version="1.1" id="Capa_1" x="0px" y="0px" viewBox="0 0 512.001 512.001" style="enable-background:new 0 0 512.001 512.001;" xml:space="preserve" width="512px" height="512px"><g><g>
	<g>
		<path d="M92.154,301.323H64.276c-4.135,0-7.486,3.351-7.486,7.486s3.351,7.486,7.486,7.486h27.878    c4.135,0,7.486-3.351,7.486-7.486C99.64,304.674,96.289,301.323,92.154,301.323z" data-original="#000000" class="active-path" data-old_color="#000000" fill="#FFFFFF"/>
	</g>
</g><g>
	<g>
		<path d="M161.852,301.323h-27.879c-4.135,0-7.486,3.351-7.486,7.486s3.351,7.486,7.486,7.486h27.879    c4.135,0,7.486-3.351,7.486-7.486C169.337,304.674,165.986,301.323,161.852,301.323z" data-original="#000000" class="active-path" data-old_color="#000000" fill="#FFFFFF"/>
	</g>
</g><g>
	<g>
		<path d="M231.548,301.323h-27.879c-4.135,0-7.486,3.351-7.486,7.486s3.351,7.486,7.486,7.486h27.879    c4.135,0,7.486-3.351,7.486-7.486C239.034,304.674,235.683,301.323,231.548,301.323z" data-original="#000000" class="active-path" data-old_color="#000000" fill="#FFFFFF"/>
	</g>
</g><g>
	<g>
		<path d="M22.458,301.323h-7.486v-7.486c0-4.135-3.351-7.486-7.486-7.486c-4.135,0-7.486,3.351-7.486,7.486v14.972    c0,4.135,3.351,7.486,7.486,7.486h14.972c4.135,0,7.486-3.351,7.486-7.486C29.943,304.674,26.592,301.323,22.458,301.323z" data-original="#000000" class="active-path" data-old_color="#000000" fill="#FFFFFF"/>
	</g>
</g><g>
	<g>
		<path d="M7.486,136.821c-4.135,0-7.486,3.351-7.486,7.486v29.906c0,4.135,3.351,7.486,7.486,7.486    c4.135,0,7.486-3.351,7.486-7.486v-29.906C14.972,140.172,11.621,136.821,7.486,136.821z" data-original="#000000" class="active-path" data-old_color="#000000" fill="#FFFFFF"/>
	</g>
</g><g>
	<g>
		<path d="M7.486,62.056C3.351,62.056,0,65.407,0,69.542v29.906c0,4.134,3.351,7.485,7.486,7.485c4.135,0,7.486-3.351,7.486-7.486    V69.542C14.972,65.407,11.621,62.056,7.486,62.056z" data-original="#000000" class="active-path" data-old_color="#000000" fill="#FFFFFF"/>
	</g>
</g><g>
	<g>
		<path d="M7.486,211.586c-4.135,0-7.486,3.351-7.486,7.486v29.906c0,4.135,3.351,7.486,7.486,7.486    c4.135,0,7.486-3.351,7.486-7.486v-29.906C14.972,214.937,11.621,211.586,7.486,211.586z" data-original="#000000" class="active-path" data-old_color="#000000" fill="#FFFFFF"/>
	</g>
</g><g>
	<g>
		<path d="M22.458,2.225H7.486C3.351,2.225,0,5.576,0,9.71v14.972c0,4.135,3.351,7.486,7.486,7.486c4.135,0,7.486-3.351,7.486-7.486    v-7.486h7.486c4.135,0,7.486-3.351,7.486-7.486S26.592,2.225,22.458,2.225z" data-original="#000000" class="active-path" data-old_color="#000000" fill="#FFFFFF"/>
	</g>
</g><g>
	<g>
		<path d="M171.988,2.225h-29.906c-4.135,0-7.486,3.351-7.486,7.486c0,4.135,3.351,7.486,7.486,7.486h29.906    c4.135,0,7.486-3.351,7.486-7.486C179.474,5.576,176.122,2.225,171.988,2.225z" data-original="#000000" class="active-path" data-old_color="#000000" fill="#FFFFFF"/>
	</g>
</g><g>
	<g>
		<path d="M246.753,2.225h-29.906c-4.135,0-7.486,3.351-7.486,7.486c0,4.135,3.351,7.486,7.486,7.486h29.906    c4.135,0,7.486-3.351,7.486-7.486C254.239,5.576,250.887,2.225,246.753,2.225z" data-original="#000000" class="active-path" data-old_color="#000000" fill="#FFFFFF"/>
	</g>
</g><g>
	<g>
		<path d="M97.223,2.225H67.316c-4.135,0-7.486,3.351-7.486,7.486c0,4.135,3.351,7.486,7.486,7.486h29.906    c4.135,0,7.486-3.351,7.486-7.486C104.708,5.576,101.357,2.225,97.223,2.225z" data-original="#000000" class="active-path" data-old_color="#000000" fill="#FFFFFF"/>
	</g>
</g><g>
	<g>
		<path d="M306.584,2.224h-14.972c-4.135,0-7.486,3.351-7.486,7.486s3.352,7.486,7.486,7.486h7.486v7.486    c0,4.135,3.351,7.486,7.486,7.486c4.135,0,7.486-3.351,7.486-7.486V9.71C314.07,5.575,310.719,2.224,306.584,2.224z" data-original="#000000" class="active-path" data-old_color="#000000" fill="#FFFFFF"/>
	</g>
</g><g>
	<g>
		<path d="M306.584,58.449c-4.135,0-7.486,3.351-7.486,7.486v27.502c0,4.135,3.351,7.486,7.486,7.486    c4.135,0,7.486-3.351,7.486-7.486V65.935C314.07,61.8,310.719,58.449,306.584,58.449z" data-original="#000000" class="active-path" data-old_color="#000000" fill="#FFFFFF"/>
	</g>
</g><g>
	<g>
		<path d="M306.584,127.204c-4.135,0-7.486,3.351-7.486,7.486v27.502c0,4.135,3.351,7.486,7.486,7.486    c4.135,0,7.486-3.351,7.486-7.486V134.69C314.07,130.555,310.719,127.204,306.584,127.204z" data-original="#000000" class="active-path" data-old_color="#000000" fill="#FFFFFF"/>
	</g>
</g><g>
	<g>
		<path d="M506.713,391.629L314.07,218.325v-14.88c0-4.135-3.351-7.486-7.486-7.486c-4.135,0-7.486,3.351-7.486,7.486v2.365    c-4.226-1.957-9.17-1.992-13.533,0.09c-5.834,2.78-9.389,8.747-9.058,15.202l4.123,80.221h-7.264    c-4.135,0-7.486,3.351-7.486,7.486s3.351,7.486,7.486,7.486h8.033l1.771,34.472c0.213,4.129,3.715,7.292,7.86,7.092    c4.129-0.212,7.305-3.731,7.092-7.86l-6.664-129.665c-0.011-0.208-0.033-0.642,0.548-0.919c0.582-0.279,0.903,0.015,1.058,0.154    L496.7,402.761c0.156,0.14,0.481,0.434,0.261,1.044c-0.221,0.61-0.659,0.626-0.869,0.634l-110.646,4.126    c-2.061,0.077-3.999,1.001-5.356,2.553l-72.886,83.349c-0.14,0.159-0.425,0.49-1.041,0.276c-0.613-0.213-0.635-0.65-0.646-0.86    l-4.693-91.325c-0.212-4.13-3.762-7.331-7.86-7.092c-4.129,0.212-7.304,3.731-7.092,7.86l4.693,91.325    c0.335,6.514,4.533,12.103,10.697,14.239c1.725,0.598,3.496,0.888,5.248,0.888c4.504,0,8.874-1.92,11.965-5.454l70.759-80.917    l107.417-4.005c6.518-0.244,12.164-4.363,14.387-10.495C513.261,402.775,511.562,395.992,506.713,391.629z" data-original="#000000" class="active-path" data-old_color="#000000" fill="#FFFFFF"/>
	</g>
</g></g> </svg>
