<?xml version="1.0"?>
<svg xmlns="http://www.w3.org/2000/svg" id="line" height="512px" viewBox="0 0 64 64" width="512px" class=""><g transform="matrix(1 0 0 1 5 5)"><path d="m40.5 43.051h-19.949a20.992 20.992 0 0 0 19.949 19.949z" fill="#c4a2fc" data-original="#C4A2FC" class="active-path" style="fill:#FFFFFF00" data-old_color="#c4a2fc"/><path d="m41.5 41.051a1 1 0 0 1 1 1v20.949a20.986 20.986 0 1 0 -21.949-21.949z" fill="#c4a2fc" data-original="#C4A2FC" class="active-path" style="fill:#FFFFFF00" data-old_color="#c4a2fc"/><g fill="#151a6a"><path d="m48.5 1h-44a3 3 0 0 0 -3 3v2a3 3 0 0 0 2 2.816v27.184a3 3 0 0 0 3 3h3.612l-2.683 8.051a3 3 0 0 0 2.846 3.949h1.784a3 3 0 0 0 2.846-2.051l3.316-9.949h16.558l3.321 9.949a3 3 0 0 0 2.841 2.051h1.784a3 3 0 0 0 2.846-3.949l-2.683-8.051h3.612a3 3 0 0 0 3-3v-27.184a3 3 0 0 0 2-2.816v-2a3 3 0 0 0 -3-3zm-35.493 47.316a1 1 0 0 1 -.948.684h-1.784a1 1 0 0 1 -.949-1.316l2.895-8.684h3.892zm30.667-.632a1 1 0 0 1 -.949 1.316h-1.784a1 1 0 0 1 -.948-.684l-3.106-9.316h3.892zm3.826-11.684a1 1 0 0 1 -1 1h-40a1 1 0 0 1 -1-1v-27h42zm2-30a1 1 0 0 1 -1 1h-44a1 1 0 0 1 -1-1v-2a1 1 0 0 1 1-1h44a1 1 0 0 1 1 1z" data-original="#151A6A" class="" style="fill:#FFFFFF" data-old_color="#151A6A"/><path d="m13.5 33h6a1 1 0 0 0 1-1v-8a1 1 0 0 0 -1-1h-6a1 1 0 0 0 -1 1v8a1 1 0 0 0 1 1zm1-8h4v6h-4z" data-original="#151A6A" class="" style="fill:#FFFFFF" data-old_color="#151A6A"/><path d="m23.5 33h6a1 1 0 0 0 1-1v-13a1 1 0 0 0 -1-1h-6a1 1 0 0 0 -1 1v13a1 1 0 0 0 1 1zm1-13h4v11h-4z" data-original="#151A6A" class="" style="fill:#FFFFFF" data-old_color="#151A6A"/><path d="m33.5 33h6a1 1 0 0 0 1-1v-18a1 1 0 0 0 -1-1h-6a1 1 0 0 0 -1 1v18a1 1 0 0 0 1 1zm1-18h4v16h-4z" data-original="#151A6A" class="" style="fill:#FFFFFF" data-old_color="#151A6A"/></g></g> </svg>
